<svg xmlns="http://www.w3.org/2000/svg" width="300" height="190" fill="none" aria-labelledby="descId" role="img" viewBox="0 0 300 190"><title id="titleId"/><desc id="descId"/><style>.header{font:600 18px &apos;Segoe UI&apos;,Ubuntu,Sans-Serif;fill:#2f80ed;animation:fadeInAnimation .8s ease-in-out forwards}@supports (-moz-appearance:auto){.header{font-size:15.5px}}.lang-name{font:400 11px &quot;Segoe UI&quot;,Ubuntu,Sans-Serif;fill:#434d58}.stagger{opacity:0;animation:fadeInAnimation .3s ease-in-out forwards}#rect-mask rect{animation:slideInAnimation 1s ease-in-out forwards}</style><rect width="299" height="99%" x=".5" y=".5" fill="#fffefe" stroke="#e4e2e2" stroke-opacity="0" data-testid="card-bg" rx="4.5"/><g data-testid="card-title"><g><text x="0" y="0" class="header" data-testid="header" transform="translate(25, 35) translate(0, 0)">Most Used Languages</text></g></g><g data-testid="main-card-body" transform="translate(0, 55)"><svg x="25" data-testid="lang-items"><mask id="rect-mask"><rect width="250" height="8" x="0" y="0" fill="#fff" rx="5"/></mask><rect width="128.3" height="8" x="0" y="0" fill="#f1e05a" data-testid="lang-progress" mask="url(#rect-mask)"/><rect width="41.23" height="8" x="128.3" y="0" fill="#3178c6" data-testid="lang-progress" mask="url(#rect-mask)"/><rect width="35.65" height="8" x="169.53" y="0" fill="#a91e50" data-testid="lang-progress" mask="url(#rect-mask)"/><rect width="29.47" height="8" x="205.18" y="0" fill="#41b883" data-testid="lang-progress" mask="url(#rect-mask)"/><rect width="14.66" height="8" x="234.65" y="0" fill="#639" data-testid="lang-progress" mask="url(#rect-mask)"/><rect width="10.48" height="8" x="249.31" y="0" fill="#384d54" data-testid="lang-progress" mask="url(#rect-mask)"/><rect width="10.2" height="8" x="249.79" y="0" fill="#e34c26" data-testid="lang-progress" mask="url(#rect-mask)"/><g><g><g><g class="stagger" style="animation-delay:450ms" transform="translate(0, 25) translate(0, 0) translate(0, 0)"><circle cx="5" cy="6" r="5" fill="#f1e05a"/><text x="15" y="10" class="lang-name" data-testid="lang-name">JavaScript 51.32%</text></g></g><g><g class="stagger" style="animation-delay:600ms" transform="translate(0, 25) translate(0, 0) translate(0, 25)"><circle cx="5" cy="6" r="5" fill="#3178c6"/><text x="15" y="10" class="lang-name" data-testid="lang-name">TypeScript 16.49%</text></g></g><g><g class="stagger" style="animation-delay:750ms" transform="translate(0, 25) translate(0, 0) translate(0, 50)"><circle cx="5" cy="6" r="5" fill="#a91e50"/><text x="15" y="10" class="lang-name" data-testid="lang-name">EJS 14.26%</text></g></g><g><g class="stagger" style="animation-delay:900ms" transform="translate(0, 25) translate(0, 0) translate(0, 75)"><circle cx="5" cy="6" r="5" fill="#41b883"/><text x="15" y="10" class="lang-name" data-testid="lang-name">Vue 11.79%</text></g></g></g><g><g><g class="stagger" style="animation-delay:450ms" transform="translate(0, 25) translate(150, 0) translate(0, 0)"><circle cx="5" cy="6" r="5" fill="#639"/><text x="15" y="10" class="lang-name" data-testid="lang-name">CSS 5.86%</text></g></g><g><g class="stagger" style="animation-delay:600ms" transform="translate(0, 25) translate(150, 0) translate(0, 25)"><circle cx="5" cy="6" r="5" fill="#384d54"/><text x="15" y="10" class="lang-name" data-testid="lang-name">Dockerfile 0.19%</text></g></g><g><g class="stagger" style="animation-delay:750ms" transform="translate(0, 25) translate(150, 0) translate(0, 50)"><circle cx="5" cy="6" r="5" fill="#e34c26"/><text x="15" y="10" class="lang-name" data-testid="lang-name">HTML 0.08%</text></g></g></g></g></svg></g></svg>